<?xml version="1.0" encoding="utf-8"?>
<!-- Generator: Adobe Illustrator 22.0.0, SVG Export Plug-In . SVG Version: 6.00 Build 0)  -->
<svg version="1.1" xmlns="http://www.w3.org/2000/svg" xmlns:xlink="http://www.w3.org/1999/xlink" x="0px" y="0px"
	 viewBox="0 0 512 512" style="enable-background:new 0 0 512 512;" xml:space="preserve">
<style type="text/css">
	.st0{display:none;}
	.st1{display:inline;}
	.st2{fill:#2196F3;}
	.st3{fill:#C4C4C4;}
</style>
<g id="Capa_1" class="st0">
	<g class="st1">
		<path class="st2" d="M490.5,273.5c-22.1-31.4-58.1-50-96.5-49.9c-65,0.2-117.5,53-117.3,118c0.2,65,53,117.5,118,117.3
			c65-0.2,117.5-53,117.3-118v-64C511.9,153.3,411.7,53.1,288,53c-5.9,0-10.7,4.8-10.7,10.7s4.8,10.7,10.7,10.7
			C398.5,74.5,488.5,163,490.5,273.5z"/>
		<path class="st2" d="M0,341c0,64.8,52.5,117.3,117.3,117.3S234.7,405.8,234.7,341v-64c-0.1-123.7-100.3-223.9-224-224
			C4.8,53,0,57.8,0,63.7s4.8,10.7,10.7,10.7c110.5,0.2,200.5,88.7,202.5,199.2c-21.9-31.2-57.7-49.8-95.8-49.9
			C52.5,223.7,0,276.2,0,341z"/>
	</g>
</g>
<g id="Layer_2">
	<g class="st0">
		<path class="st1" d="M24.2,472.1l-4.7-6.7c56.9-42.3,93.8-84.7,110.9-127.2c17.1-42.5,25.6-78.7,25.6-108.4c0-20.4-6-30.5-18-30.5
			c-2.1,0-6.8,1.1-14.1,3.3c-7.3,2.2-13.9,3.3-19.6,3.3c-23,0-42.9-7.9-59.6-23.6s-25.1-34.6-25.1-56.6c0-22.5,8-42.5,23.9-59.8
			C59.4,48.6,81,39.9,108.2,39.9c32.4,0,60.5,13.9,84.3,41.6c23.8,27.7,35.7,66.4,35.7,116.1c0,55.4-15.1,105-45.2,148.6
			S100,431.8,24.2,472.1z M274.6,472.1l-6.3-6.7c46.4-31.8,81.1-69,104.3-111.6c23.2-42.5,34.8-83.9,34.8-124.1
			c0-20.4-5.6-30.5-16.7-30.5c-2.1,0-6.9,1.1-14.3,3.3c-7.4,2.2-14,3.3-19.8,3.3c-23.3,0-43.4-7.9-60.3-23.6
			c-16.9-15.7-25.4-34.6-25.4-56.6c0-22.5,8-42.5,23.9-59.8c15.9-17.3,37.5-25.9,64.7-25.9c31.9,0,59.9,13.7,83.9,41.2
			s36.1,66.3,36.1,116.5c0,55.4-15.1,105-45.4,148.6S350.8,431.8,274.6,472.1z"/>
	</g>
	<g class="st0">
		<path class="st1" d="M219.9,24.4l6.7,7.2c-59.3,40.9-99,84.8-119.1,131.8s-30.1,87.3-30.1,120.9c0,21.8,5.9,32.7,17.9,32.7
			c1.1,0,6.7-1.2,16.6-3.6c9.9-2.4,16.6-3.6,20-3.6c24.4,0,45.8,8.2,64.2,24.4c18.4,16.3,27.7,36.8,27.7,61.5
			c0,24.7-8.7,46.2-26.1,64.5s-40.4,27.4-69,27.4c-36.5,0-67-15.8-91.7-47.5S0,368,0,318.6c0-60.5,16.9-114.3,50.8-161.4
			C84.6,110.1,141,65.9,219.9,24.4z M507,24.4l5,7.2c-57.1,40.9-95.7,85.1-115.9,132.6c-20.2,47.6-30.3,87.6-30.3,120
			c0,6.2,1.7,13.2,5,21c3.4,7.8,8.1,11.7,14.3,11.7c1.1,0,6.6-1.2,16.4-3.6c9.8-2.4,16.4-3.6,19.8-3.6c23.5,0,44.5,8,63.1,24
			c18.5,16,27.7,36.7,27.7,61.9c0,24.7-8.7,46.2-26.1,64.5c-17.4,18.3-40.4,27.4-69,27.4c-34.2,0-64.2-15-90-45s-38.7-71.3-38.7-124
			c0-60.5,16.8-114.3,50.5-161.4C372.4,110.1,428.5,65.9,507,24.4z"/>
	</g>
	<g class="st0">
		<path class="st1" d="M0,480.7c19.4-15.3,36.7-31.9,52.1-49.7c15.4-17.7,28.4-36.2,39-55.2c10.6-19,18.7-38.2,24.4-57.4
			c5.7-19.2,8.5-38,8.5-56.3c0-16.1-2.1-29.3-6.3-39.5s-9.6-19-16.2-26.4S88,182.5,80.7,176.9c-7.3-5.7-14.3-11.9-20.9-18.7
			c-6.6-6.8-12-14.7-16.2-23.9c-4.2-9.1-6.3-21.1-6.3-35.7c0-10.6,2.1-20.9,6.3-31S53.8,48.6,61.5,41s16.8-13.9,27.5-18.7
			c10.6-4.7,22.3-7.1,35.1-7.1c17.9,0,33.7,3.6,47.2,10.7s24.9,17.1,34.1,29.9c9.1,12.8,16,28,20.6,45.6c4.6,17.6,6.9,36.6,6.9,57.1
			c0,27.8-4.1,57.3-12.4,88.4c-8.3,31.1-20.8,62.3-37.6,93.3s-38.2,61.4-64.2,90.9c-26,29.5-56.7,56.5-92.2,81L0,480.7z
			 M279.2,480.7c19.4-15.3,36.7-31.9,52.1-49.7c15.4-17.7,28.4-36.2,39-55.2c10.6-19,18.7-38.2,24.4-57.4c5.7-19.2,8.5-38,8.5-56.3
			c0-16.1-2.1-29.3-6.3-39.5c-4.2-10.2-9.6-19-16.2-26.4s-13.5-13.8-20.8-19.5c-7.3-5.7-14.3-11.9-20.9-18.7
			c-6.6-6.8-12-14.7-16.2-23.9c-4.2-9.1-6.3-21.1-6.3-35.7c0-10.6,2.1-20.9,6.3-31S333,48.6,340.7,41s16.8-13.9,27.5-18.7
			c10.6-4.7,22.3-7.1,35.1-7.1c17.9,0,33.7,3.6,47.2,10.7s24.9,17.1,34.1,29.9c9.1,12.8,16,28,20.6,45.6c4.6,17.6,6.9,36.6,6.9,57.1
			c0,27.8-4.1,57.3-12.4,88.4c-8.3,31.1-20.8,62.3-37.6,93.3s-38.2,61.4-64.2,90.9c-26,29.5-56.7,56.5-92.2,81L279.2,480.7z"/>
	</g>
	<g>
		<path class="st3" d="M230.3,41.2c-19.2,15.2-36.4,31.7-51.6,49.4c-15.2,17.8-28.1,35.9-38.5,54.6c-10.5,18.7-18.6,37.6-24.2,56.7
			s-8.4,37.7-8.4,55.4c0,15.9,2.1,29,6.2,39.1c4.2,10.1,9.5,18.8,16,26.1c6.5,7.2,13.4,13.7,20.7,19.3c7.2,5.6,14.1,11.8,20.6,18.4
			c6.5,6.7,11.9,14.7,16,23.9c4.2,9.2,6.3,20.9,6.3,35c0,10.5-2.2,20.7-6.5,30.7c-4.3,10-10.3,18.8-17.9,26.4
			c-7.6,7.6-16.7,13.8-27.2,18.4c-10.5,4.7-21.9,7.1-34.2,7.1c-17.8,0-33.3-3.5-46.7-10.6s-24.6-16.9-33.7-29.6
			c-9.1-12.7-15.8-27.7-20.4-45.1S0,380.3,0,360c0-27.5,4.1-56.7,12.2-87.4c8.1-30.8,20.5-61.5,37.2-92.3s37.8-60.7,63.5-89.9
			s56.1-55.8,91.3-80.1L230.3,41.2z M512,41.2c-19.2,15.2-36.4,31.7-51.6,49.4c-15.2,17.8-28.1,35.9-38.5,54.6
			c-10.5,18.7-18.6,37.6-24.2,56.7c-5.6,19.2-8.4,37.7-8.4,55.4c0,15.9,2.1,29,6.2,39.1c4.2,10.1,9.5,18.8,16,26.1
			c6.5,7.2,13.4,13.7,20.7,19.3c7.2,5.6,14.1,11.8,20.6,18.4c6.5,6.7,11.9,14.7,16,23.9c4.2,9.2,6.3,20.9,6.3,35
			c0,10.5-2.2,20.7-6.5,30.7c-4.3,10-10.3,18.8-17.9,26.4c-7.6,7.6-16.7,13.8-27.2,18.4c-10.5,4.7-21.9,7.1-34.2,7.1
			c-17.8,0-33.3-3.5-46.7-10.6s-24.6-16.9-33.7-29.6c-9.1-12.7-15.8-27.7-20.4-45.1s-6.8-36.2-6.8-56.5c0-27.5,4.1-56.7,12.2-87.4
			c8.1-30.8,20.5-61.5,37.2-92.3c16.7-30.8,37.8-60.7,63.5-89.9s56.1-55.8,91.3-80.1L512,41.2z"/>
	</g>
</g>
</svg>
