<?xml version="1.0" encoding="utf-8"?>
<!-- Generator: Adobe Illustrator 22.0.0, SVG Export Plug-In . SVG Version: 6.00 Build 0)  -->
<svg version="1.1" xmlns="http://www.w3.org/2000/svg" xmlns:xlink="http://www.w3.org/1999/xlink" x="0px" y="0px"
	 viewBox="0 0 369 369" style="enable-background:new 0 0 369 369;" xml:space="preserve">
<style type="text/css">
	.st0{display:none;}
	.st1{display:inline;fill:#009245;stroke:#F5F5F5;stroke-width:0.75;stroke-miterlimit:10;}
	.st2{fill:#F5F5F5;}
	.st3{fill:#136CA3;}
</style>
<g id="Layer_2" class="st0">
	<rect x="-0.5" y="-0.5" class="st1" width="369" height="369"/>
</g>
<g id="Layer_1">
	<circle class="st2" cx="184.5" cy="184.5" r="184.5"/>
	<g>
		<g>
			<g>
				<path class="st3" d="M286.8,181.5c0,54.9-44.9,99.5-100.3,99.5c-17.6,0-34.1-4.5-48.5-12.4l-55.5,17.6l18.1-53.4
					c-9.1-15-14.4-32.6-14.4-51.4c0-54.9,44.9-99.5,100.3-99.5C241.9,82,286.8,126.5,286.8,181.5z M186.5,97.9
					c-46.5,0-84.3,37.5-84.3,83.6c0,18.3,6,35.2,16.1,49l-10.5,31.1l32.4-10.3c13.3,8.7,29.3,13.8,46.4,13.8
					c46.5,0,84.3-37.5,84.3-83.6C270.8,135.4,233,97.9,186.5,97.9z M237.1,204.4c-0.6-1-2.3-1.6-4.7-2.8c-2.4-1.2-14.5-7.1-16.8-7.9
					c-2.3-0.8-3.9-1.2-5.5,1.2c-1.6,2.4-6.3,7.9-7.8,9.6c-1.4,1.6-2.9,1.8-5.3,0.6c-2.5-1.2-10.4-3.8-19.8-12.1
					c-7.3-6.5-12.2-14.4-13.7-16.9c-1.4-2.4-0.1-3.8,1.1-5c1.1-1.1,2.5-2.9,3.7-4.3c1.2-1.4,1.6-2.4,2.5-4.1c0.8-1.6,0.4-3-0.2-4.3
					c-0.6-1.2-5.5-13.2-7.6-18.1c-2-4.9-4.1-4.1-5.5-4.1c-1.4,0-3.1-0.2-4.7-0.2s-4.3,0.6-6.5,3c-2.2,2.4-8.6,8.3-8.6,20.3
					c0,12,8.8,23.6,10,25.2c1.2,1.6,17,27,42,36.8c25,9.8,25,6.5,29.5,6.1c4.5-0.4,14.5-5.9,16.6-11.6
					C237.7,210.3,237.7,205.4,237.1,204.4z"/>
			</g>
		</g>
	</g>
</g>
</svg>
